<svg width="125" height="168" viewBox="0 0 125 168" fill="none" xmlns="http://www.w3.org/2000/svg">
<path d="M37.56 117.14H22.25V166.13H37.56V117.14Z" stroke="white" stroke-width="2.7" stroke-linecap="round" stroke-linejoin="round"/>
<path d="M69.3501 117.14H37.5601V166.13H69.3501V117.14Z" stroke="white" stroke-width="2.72" stroke-linecap="round" stroke-linejoin="round"/>
<path d="M84.6699 117.14H69.3599V166.13H84.6699V117.14Z" stroke="white" stroke-width="2.7" stroke-linecap="round" stroke-linejoin="round"/>
<path d="M22.2402 125.48H6.93018V166.13H22.2402V125.48Z" stroke="white" stroke-width="2.73" stroke-linecap="round" stroke-linejoin="round"/>
<path d="M6.93018 125.48H22.2402V117.14H11.1002C8.81018 117.14 6.93018 119.02 6.93018 121.31V125.48Z" stroke="white" stroke-width="2.72" stroke-linecap="round" stroke-linejoin="round"/>
<path d="M22.2399 110.76H12.6099V117.13H22.2399V110.76Z" stroke="white" stroke-width="2.72" stroke-linecap="round" stroke-linejoin="round"/>
<path d="M20.4901 99.6201H14.3701V110.76H20.4901V99.6201Z" stroke="white" stroke-width="2.71" stroke-linecap="round" stroke-linejoin="round"/>
<path d="M17.43 100.03C20.0037 100.03 22.09 97.9436 22.09 95.37C22.09 92.7963 20.0037 90.71 17.43 90.71C14.8564 90.71 12.77 92.7963 12.77 95.37C12.77 97.9436 14.8564 100.03 17.43 100.03Z" stroke="white" stroke-width="2.72" stroke-linecap="round" stroke-linejoin="round"/>
<path d="M17.48 74.28V90.71" stroke="white" stroke-width="2.72" stroke-linecap="round" stroke-linejoin="round"/>
<path d="M14.7798 78.51H20.1998" stroke="white" stroke-width="2.72" stroke-linecap="round" stroke-linejoin="round"/>
<path d="M35.8502 87.7899H28.8302C28.4402 87.5999 28.1202 87.3499 27.8902 87.0199C21.0002 77.3199 32.1202 74.9799 35.8502 69.1499C39.5802 74.9799 50.7002 77.3099 43.8102 87.0199C43.5802 87.3499 43.2502 87.5999 42.8702 87.7899H35.8502Z" stroke="white" stroke-width="2.72" stroke-linecap="round" stroke-linejoin="round"/>
<path d="M79.6602 87.87H72.6402C72.2502 87.68 71.9302 87.43 71.7002 87.1C64.8102 77.4 75.9302 75.06 79.6602 69.23C83.3902 75.06 94.5102 77.39 87.6202 87.1C87.3902 87.43 87.0602 87.68 86.6802 87.87H79.6602Z" stroke="white" stroke-width="2.72" stroke-linecap="round" stroke-linejoin="round"/>
<path d="M104.38 67.3299H97.36C96.97 67.1399 96.65 66.8899 96.42 66.5599C89.53 56.8599 100.65 54.5199 104.38 48.6899C108.11 54.5199 119.23 56.8499 112.34 66.5599C112.1 66.8899 111.78 67.1399 111.4 67.3299H104.38Z" stroke="white" stroke-width="2.72" stroke-linecap="round" stroke-linejoin="round"/>
<path d="M29.0601 102.92V87.79H42.2101V96.88" stroke="white" stroke-width="2.72" stroke-linecap="round" stroke-linejoin="round"/>
<path d="M86.2398 87.8701H73.0898V105.61H86.2398V87.8701Z" stroke="white" stroke-width="2.72" stroke-linecap="round" stroke-linejoin="round"/>
<path d="M110.96 67.3301H97.8101V81.4501H110.96V67.3301Z" stroke="white" stroke-width="2.71" stroke-linecap="round" stroke-linejoin="round"/>
<path d="M113.78 81.45H94.9902V98.9H113.78V81.45Z" stroke="white" stroke-width="2.72" stroke-linecap="round" stroke-linejoin="round"/>
<path d="M90.2999 98.8899H116.65V105.01H90.1699" stroke="white" stroke-width="2.72" stroke-linecap="round" stroke-linejoin="round"/>
<path d="M26.8198 111.12H119.03V105.01H92.5598" stroke="white" stroke-width="2.72" stroke-linecap="round" stroke-linejoin="round"/>
<path d="M38.7601 111.12C38.4901 110.22 38.3501 109.28 38.3501 108.32C38.3501 101.66 45.1601 96.26 53.5501 96.26C61.9401 96.26 68.7501 101.66 68.7501 108.32C68.7501 109.29 68.6101 110.22 68.3401 111.12" stroke="white" stroke-width="2.72" stroke-linecap="round" stroke-linejoin="round"/>
<path d="M60.8499 27.7499C63.4236 27.7499 65.5099 25.6636 65.5099 23.0899C65.5099 20.5163 63.4236 18.4299 60.8499 18.4299C58.2763 18.4299 56.1899 20.5163 56.1899 23.0899C56.1899 25.6636 58.2763 27.7499 60.8499 27.7499Z" stroke="white" stroke-width="2.72" stroke-linecap="round" stroke-linejoin="round"/>
<path d="M63.91 27.29H57.79V36.69H63.91V27.29Z" stroke="white" stroke-width="2.72" stroke-linecap="round" stroke-linejoin="round"/>
<path d="M56.4401 36.6899H65.2701L68.6501 47.2899H53.0601L56.4401 36.6899Z" stroke="white" stroke-width="2.72" stroke-linecap="round" stroke-linejoin="round"/>
<path d="M69.5599 47.29H52.1499V56.69H69.5599V47.29Z" stroke="white" stroke-width="2.73" stroke-linecap="round" stroke-linejoin="round"/>
<path d="M50.3502 56.6899H71.9902L75.3702 67.4599H46.9702L50.3502 56.6899Z" stroke="white" stroke-width="2.72" stroke-linecap="round" stroke-linejoin="round"/>
<path d="M35.8501 52.73V69.15" stroke="white" stroke-width="2.72" stroke-linecap="round" stroke-linejoin="round"/>
<path d="M33.1499 56.96H38.5699" stroke="white" stroke-width="2.72" stroke-linecap="round" stroke-linejoin="round"/>
<path d="M60.8501 2V18.43" stroke="white" stroke-width="2.72" stroke-linecap="round" stroke-linejoin="round"/>
<path d="M58.1499 6.22998H63.5699" stroke="white" stroke-width="2.72" stroke-linecap="round" stroke-linejoin="round"/>
<path d="M79.6602 52.8101V69.2301" stroke="white" stroke-width="2.72" stroke-linecap="round" stroke-linejoin="round"/>
<path d="M76.96 57.04H82.37" stroke="white" stroke-width="2.72" stroke-linecap="round" stroke-linejoin="round"/>
<path d="M104.38 32.27V48.7" stroke="white" stroke-width="2.72" stroke-linecap="round" stroke-linejoin="round"/>
<path d="M101.68 36.5H107.1" stroke="white" stroke-width="2.72" stroke-linecap="round" stroke-linejoin="round"/>
<path d="M42.8599 122.04V166.13" stroke="white" stroke-width="2.71" stroke-linecap="round" stroke-linejoin="round"/>
<path d="M64.0498 122.04V166.13" stroke="white" stroke-width="2.71" stroke-linecap="round" stroke-linejoin="round"/>
<path d="M29.9102 123.7V129.54" stroke="white" stroke-width="2.71" stroke-linecap="round" stroke-linejoin="round"/>
<path d="M29.9102 142.95V148.78" stroke="white" stroke-width="2.71" stroke-linecap="round" stroke-linejoin="round"/>
<path d="M29.9102 158.28V164.12" stroke="white" stroke-width="2.71" stroke-linecap="round" stroke-linejoin="round"/>
<path d="M77.02 123.7V129.54" stroke="white" stroke-width="2.71" stroke-linecap="round" stroke-linejoin="round"/>
<path d="M77.02 142.95V148.78" stroke="white" stroke-width="2.71" stroke-linecap="round" stroke-linejoin="round"/>
<path d="M111.03 158.28V164.12" stroke="white" stroke-width="2.71" stroke-linecap="round" stroke-linejoin="round"/>
<path d="M48.73 123.7V129.54" stroke="white" stroke-width="2.71" stroke-linecap="round" stroke-linejoin="round"/>
<path d="M58.2002 123.7V129.54" stroke="white" stroke-width="2.71" stroke-linecap="round" stroke-linejoin="round"/>
<path d="M53.46 123.7V129.54" stroke="white" stroke-width="2.71" stroke-linecap="round" stroke-linejoin="round"/>
<path d="M48.73 142.95V148.78" stroke="white" stroke-width="2.71" stroke-linecap="round" stroke-linejoin="round"/>
<path d="M58.2002 142.95V148.78" stroke="white" stroke-width="2.71" stroke-linecap="round" stroke-linejoin="round"/>
<path d="M53.46 142.95V148.78" stroke="white" stroke-width="2.71" stroke-linecap="round" stroke-linejoin="round"/>
<path d="M48.73 158.28V164.12" stroke="white" stroke-width="2.71" stroke-linecap="round" stroke-linejoin="round"/>
<path d="M58.2002 158.28V164.12" stroke="white" stroke-width="2.71" stroke-linecap="round" stroke-linejoin="round"/>
<path d="M53.46 158.28V164.12" stroke="white" stroke-width="2.71" stroke-linecap="round" stroke-linejoin="round"/>
<path d="M14.6001 142.95V148.78" stroke="white" stroke-width="2.71" stroke-linecap="round" stroke-linejoin="round"/>
<path d="M14.6001 158.28V164.12" stroke="white" stroke-width="2.71" stroke-linecap="round" stroke-linejoin="round"/>
<path d="M104.39 71.47V77.31" stroke="white" stroke-width="2.71" stroke-linecap="round" stroke-linejoin="round"/>
<path d="M79.6602 92.76V98.59" stroke="white" stroke-width="2.71" stroke-linecap="round" stroke-linejoin="round"/>
<path d="M35.6401 92.76V98.59" stroke="white" stroke-width="2.71" stroke-linecap="round" stroke-linejoin="round"/>
<path d="M84.6699 117.14H123.29" stroke="white" stroke-width="2.72" stroke-linecap="round" stroke-linejoin="round"/>
<path d="M84.6699 111.12H123.29" stroke="white" stroke-width="2.72" stroke-linecap="round" stroke-linejoin="round"/>
<path d="M118.77 117.14H84.6699V166.13H118.77V117.14Z" stroke="white" stroke-width="2.71" stroke-linecap="round" stroke-linejoin="round"/>
<path d="M104.88 153.35H122.37" stroke="white" stroke-width="2.72" stroke-linecap="round" stroke-linejoin="round"/>
<path d="M84.6699 156.19L95.2599 144.2L104.88 153.35V166.13" stroke="white" stroke-width="2.72" stroke-linecap="round" stroke-linejoin="round"/>
<path d="M46.9702 67.46V73.3" stroke="white" stroke-width="2.71" stroke-linecap="round" stroke-linejoin="round"/>
<path d="M52.9302 76.04V89.57" stroke="white" stroke-width="2.72" stroke-linecap="round" stroke-linejoin="round"/>
<path d="M61 76.04V89.57" stroke="white" stroke-width="2.72" stroke-linecap="round" stroke-linejoin="round"/>
<path d="M105.97 121.89H118.77" stroke="white" stroke-width="2.72" stroke-linecap="round" stroke-linejoin="round"/>
<path d="M107.4 143.49H122.37" stroke="white" stroke-width="2.73" stroke-linecap="round" stroke-linejoin="round"/>
<path d="M99.98 105.01L100.21 124.83" stroke="white" stroke-width="2.72" stroke-linecap="round" stroke-linejoin="round"/>
<path d="M104.83 140.35L100.21 124.83" stroke="white" stroke-width="2.72" stroke-linecap="round" stroke-linejoin="round"/>
<path d="M95.5898 140.35L100.21 124.83" stroke="white" stroke-width="2.72" stroke-linecap="round" stroke-linejoin="round"/>
<path d="M92.9702 141.26H107.4V148.27" stroke="white" stroke-width="2.72" stroke-linecap="round" stroke-linejoin="round"/>
<path d="M11.8501 130.28H22.2401" stroke="white" stroke-width="2.73" stroke-linecap="round" stroke-linejoin="round"/>
<path d="M2 125.48H22.24" stroke="white" stroke-width="2.71" stroke-linecap="round" stroke-linejoin="round"/>
<path d="M26.4199 106.49H34.2099" stroke="white" stroke-width="2.71" stroke-linecap="round" stroke-linejoin="round"/>
<path d="M92.0601 166.13V158.6C92.0601 156.92 93.4201 155.56 95.1001 155.56C96.7801 155.56 98.1401 156.92 98.1401 158.6V166.13" stroke="white" stroke-width="2.72" stroke-linecap="round" stroke-linejoin="round"/>
<path d="M77.02 158.28V164.12" stroke="white" stroke-width="2.71" stroke-linecap="round" stroke-linejoin="round"/>
</svg>
