<svg width="319" height="300" viewBox="0 0 319 300" fill="none" xmlns="http://www.w3.org/2000/svg">
<path d="M202.301 102.833H115.787C115.787 53.7929 202.301 53.7929 202.301 102.833Z" stroke="white" stroke-width="5.97231" stroke-linecap="round" stroke-linejoin="round"/>
<path d="M73.2232 202.848H29.188V287.554H73.2232V202.848Z" stroke="white" stroke-width="5.97231" stroke-linecap="round" stroke-linejoin="round"/>
<path d="M73.2656 286.503V202.848L78.2285 196.834V173.407" stroke="white" stroke-width="5.97231" stroke-linecap="round" stroke-linejoin="round"/>
<path d="M159.275 44.0776H158.812H151.999V65.9481H158.812H159.275H166.089V44.0776H159.275Z" stroke="white" stroke-width="5.97231" stroke-linecap="round" stroke-linejoin="round"/>
<path d="M58.5029 269.974V245.622C58.5029 241.584 55.2224 238.346 51.2268 238.346C47.2312 238.346 43.9507 241.626 43.9507 245.622V269.974H58.545H58.5029Z" stroke="white" stroke-width="5.97231" stroke-linecap="round" stroke-linejoin="round"/>
<path d="M41.5117 233.467L51.3955 227.747" stroke="white" stroke-width="5.97231" stroke-linecap="round" stroke-linejoin="round"/>
<path d="M61.3208 233.467L51.395 227.747" stroke="white" stroke-width="5.97231" stroke-linecap="round" stroke-linejoin="round"/>
<path d="M15.2671 250.332V239.187L28.894 234.014" stroke="white" stroke-width="5.97231" stroke-linecap="round" stroke-linejoin="round"/>
<path d="M15.2671 239.187V288.227" stroke="white" stroke-width="5.97231" stroke-linecap="round" stroke-linejoin="round"/>
<path d="M86.9349 153.85C92.8651 153.85 97.7018 158.645 97.7018 164.617H76.21C76.21 158.687 81.0046 153.85 86.9769 153.85H86.9349Z" stroke="white" stroke-width="5.97231" stroke-linecap="round" stroke-linejoin="round"/>
<path d="M2.98584 288.227H315.102V296.134H2.98584V288.227Z" stroke="white" stroke-width="5.97231" stroke-linecap="round" stroke-linejoin="round"/>
<path d="M100.604 228.252V288.185" stroke="white" stroke-width="5.93025" stroke-linecap="round" stroke-linejoin="round"/>
<path d="M102.202 164.533H69.6484V172.356H102.202V164.533Z" stroke="white" stroke-width="5.97231" stroke-linecap="round" stroke-linejoin="round"/>
<path d="M96.272 172.356H221.817V180.263H96.272V172.356Z" stroke="white" stroke-width="5.97231" stroke-linecap="round" stroke-linejoin="round"/>
<path d="M96.272 173.407V218.915" stroke="white" stroke-width="5.97231" stroke-linecap="round" stroke-linejoin="round"/>
<path d="M92.4863 220.134H225.601V228.294H92.4863V220.134Z" stroke="white" stroke-width="5.97231" stroke-linecap="round" stroke-linejoin="round"/>
<path d="M117.217 228.252V288.185" stroke="white" stroke-width="5.93025" stroke-linecap="round" stroke-linejoin="round"/>
<path d="M134.629 228.252V288.185" stroke="white" stroke-width="5.93025" stroke-linecap="round" stroke-linejoin="round"/>
<path d="M150.106 228.252V288.185" stroke="white" stroke-width="5.93025" stroke-linecap="round" stroke-linejoin="round"/>
<path d="M109.352 120.792H208.778V128.699H109.352V120.792Z" stroke="white" stroke-width="5.97231" stroke-linecap="round" stroke-linejoin="round"/>
<path d="M120.077 120.792H198.011V102.833H120.077V120.792Z" stroke="white" stroke-width="5.97231" stroke-linecap="round" stroke-linejoin="round"/>
<path d="M110.782 172.356H207.264V164.449H110.782V172.356Z" stroke="white" stroke-width="5.97231" stroke-linecap="round" stroke-linejoin="round"/>
<path d="M115.408 128.699V164.449" stroke="white" stroke-width="5.97231" stroke-linecap="round" stroke-linejoin="round"/>
<path d="M129.876 128.699V164.449" stroke="white" stroke-width="5.97231" stroke-linecap="round" stroke-linejoin="round"/>
<path d="M140.938 128.699V164.449" stroke="white" stroke-width="5.97231" stroke-linecap="round" stroke-linejoin="round"/>
<path d="M152.209 128.699V164.449" stroke="white" stroke-width="5.97231" stroke-linecap="round" stroke-linejoin="round"/>
<path d="M92.4863 220.134L158.518 193.217" stroke="white" stroke-width="5.97231" stroke-linecap="round" stroke-linejoin="round"/>
<path d="M141.821 220.134V213.321L159.023 208.694" stroke="white" stroke-width="5.97231" stroke-linecap="round" stroke-linejoin="round"/>
<path d="M86.9346 153.766V134.335" stroke="white" stroke-width="5.93025" stroke-linecap="round" stroke-linejoin="round"/>
<path d="M165.332 11.1877H152.798" stroke="white" stroke-width="5.97231" stroke-linecap="round" stroke-linejoin="round"/>
<path d="M288.858 202.848H244.822V287.554H288.858V202.848Z" stroke="white" stroke-width="5.97231" stroke-linecap="round" stroke-linejoin="round"/>
<path d="M244.822 286.503V202.848L239.859 196.834V173.407" stroke="white" stroke-width="5.97231" stroke-linecap="round" stroke-linejoin="round"/>
<path d="M302.779 250.332V239.187L289.194 234.014" stroke="white" stroke-width="5.97231" stroke-linecap="round" stroke-linejoin="round"/>
<path d="M231.111 153.85C225.181 153.85 220.344 158.645 220.344 164.617H241.836C241.836 158.687 237.041 153.85 231.069 153.85H231.111Z" stroke="white" stroke-width="5.97231" stroke-linecap="round" stroke-linejoin="round"/>
<path d="M217.484 228.252V288.185" stroke="white" stroke-width="5.93025" stroke-linecap="round" stroke-linejoin="round"/>
<path d="M248.397 164.533H215.844V172.356H248.397V164.533Z" stroke="white" stroke-width="5.97231" stroke-linecap="round" stroke-linejoin="round"/>
<path d="M221.816 173.407V218.536" stroke="white" stroke-width="5.97231" stroke-linecap="round" stroke-linejoin="round"/>
<path d="M200.871 228.252V288.185" stroke="white" stroke-width="5.93025" stroke-linecap="round" stroke-linejoin="round"/>
<path d="M183.459 228.252V288.185" stroke="white" stroke-width="5.93025" stroke-linecap="round" stroke-linejoin="round"/>
<path d="M167.981 228.252V288.185" stroke="white" stroke-width="5.93025" stroke-linecap="round" stroke-linejoin="round"/>
<path d="M202.68 128.699V164.449" stroke="white" stroke-width="5.97231" stroke-linecap="round" stroke-linejoin="round"/>
<path d="M188.211 128.699V164.449" stroke="white" stroke-width="5.97231" stroke-linecap="round" stroke-linejoin="round"/>
<path d="M177.15 128.699V164.449" stroke="white" stroke-width="5.97231" stroke-linecap="round" stroke-linejoin="round"/>
<path d="M165.878 128.699V164.449" stroke="white" stroke-width="5.97231" stroke-linecap="round" stroke-linejoin="round"/>
<path d="M225.601 220.134L159.569 193.217" stroke="white" stroke-width="5.97231" stroke-linecap="round" stroke-linejoin="round"/>
<path d="M176.266 220.134V213.321L159.022 208.694" stroke="white" stroke-width="5.97231" stroke-linecap="round" stroke-linejoin="round"/>
<path d="M273.969 269.974V245.622C273.969 241.584 270.688 238.346 266.693 238.346C262.697 238.346 259.417 241.626 259.417 245.622V269.974H274.011H273.969Z" stroke="white" stroke-width="5.97231" stroke-linecap="round" stroke-linejoin="round"/>
<path d="M256.935 233.467L266.861 227.747" stroke="white" stroke-width="5.97231" stroke-linecap="round" stroke-linejoin="round"/>
<path d="M276.745 233.467L266.861 227.747" stroke="white" stroke-width="5.97231" stroke-linecap="round" stroke-linejoin="round"/>
<path d="M169.201 43.9934H148.887C148.887 32.4693 169.201 32.4693 169.201 43.9934Z" stroke="white" stroke-width="5.97231" stroke-linecap="round" stroke-linejoin="round"/>
<path d="M159.022 35.4134V2.98633" stroke="white" stroke-width="5.97231" stroke-linecap="round" stroke-linejoin="round"/>
<path d="M93.2435 140.139H80.668" stroke="white" stroke-width="5.97231" stroke-linecap="round" stroke-linejoin="round"/>
<path d="M231.153 153.766V134.335" stroke="white" stroke-width="5.93025" stroke-linecap="round" stroke-linejoin="round"/>
<path d="M237.42 140.139H224.886" stroke="white" stroke-width="5.97231" stroke-linecap="round" stroke-linejoin="round"/>
</svg>
