<svg width="24" height="24" viewBox="0 0 24 24" fill="none" xmlns="http://www.w3.org/2000/svg">
<path d="M15.449 4C13.9552 4 12.5214 4.69543 11.5856 5.79438C10.6497 4.69543 9.21594 4 7.72205 4C5.0777 4 3 6.0777 3 8.72205C3 11.9674 5.91909 14.6117 10.3406 18.6298L11.5856 19.7545L12.8305 18.6212C17.252 14.6117 20.1711 11.9674 20.1711 8.72205C20.1711 6.0777 18.0934 4 15.449 4ZM11.6714 17.3505L11.5856 17.4364L11.4997 17.3505C7.41297 13.6502 4.71711 11.2033 4.71711 8.72205C4.71711 7.00494 6.00494 5.71711 7.72205 5.71711C9.04423 5.71711 10.3321 6.56708 10.7871 7.7433H12.3926C12.839 6.56708 14.1269 5.71711 15.449 5.71711C17.1662 5.71711 18.454 7.00494 18.454 8.72205C18.454 11.2033 15.7581 13.6502 11.6714 17.3505Z" fill="#D6BD7F"/>
</svg>
