<svg width="47" height="60" viewBox="0 0 47 60" fill="none" xmlns="http://www.w3.org/2000/svg">
<g clip-path="url(#clip0_102_1844)">
<g clip-path="url(#clip1_102_1844)">
<path d="M36.3047 53.2102C28.9686 53.2102 25.7549 55.1138 23.5054 57.7722C21.2225 55.1026 17.9867 53.2102 10.706 53.2102C5.04331 53.2102 1.28662 51.7571 1.28662 44.8295V1.7998H45.713V44.8408C45.713 51.7683 41.912 53.2214 36.2936 53.2214L36.3047 53.2102Z" stroke="#D6BD7F" stroke-width="2.42" stroke-miterlimit="22.93"/>
<path fill-rule="evenodd" clip-rule="evenodd" d="M22.3306 12.546C22.7627 11.4871 24.2699 11.6223 24.8129 12.4108L23.4831 14.6637L22.3195 12.546H22.3306ZM21.2667 19.068C17.8536 14.5736 21.8541 13.8526 21.8541 13.8526L23.5052 16.4209L25.234 13.8189C25.234 13.8189 28.9685 14.551 26.0097 19.0793L21.2667 19.0568V19.068ZM36.9916 24.351C36.4154 24.7115 35.7394 25.1282 35.0302 25.5563C35.0412 25.7252 35.0523 25.9055 35.0523 26.0744C35.0523 26.2434 35.0523 26.4236 35.0302 26.5926L39.4185 26.2885C39.4185 26.2885 38.6539 30.1859 36.0607 29.848L34.1325 29.5889C33.9774 29.8705 33.8001 30.1409 33.6117 30.4112L37.6898 32.4163C37.6898 32.4163 35.3294 35.176 33.4011 33.7004C32.8914 33.3061 32.2819 32.833 31.6502 32.3374C31.3178 32.574 30.9743 32.788 30.6196 32.9795L33.0909 35.9645C33.0909 35.9645 30.0212 37.4176 28.9242 35.39L28.1595 33.982C27.6719 34.1284 27.1733 34.2523 26.6746 34.3425C27.3506 35.7392 28.1706 37.4514 28.6693 38.499C29.3231 39.8732 28.503 40.9997 26.874 42.205L25.6107 37.7105L24.7574 37.9132L25.5442 43.1174C24.9458 43.5003 24.2809 43.8946 23.5828 44.3226C22.8625 43.9847 22.1865 43.6355 21.5548 43.2751L22.3195 37.8682L21.4662 37.688L20.214 42.3739C18.5406 41.1461 17.6984 39.8394 18.3966 38.4765C18.9617 37.35 19.7929 35.7167 20.4799 34.3762C19.9258 34.2749 19.3828 34.151 18.8509 33.9933C18.585 34.5114 18.319 34.9845 18.0863 35.4013C17.0003 37.4289 13.9196 35.9645 13.9196 35.9645L16.3908 32.9795C16.0362 32.788 15.6926 32.5627 15.3602 32.3261C14.7285 32.8218 14.119 33.3061 13.6093 33.6891C11.6811 35.176 9.32069 32.405 9.32069 32.405L13.3987 30.3999C13.2104 30.1409 13.033 29.8818 12.8779 29.6002C12.1908 29.6903 11.5259 29.7917 10.9608 29.8593C8.36766 30.1859 7.60303 26.2997 7.60303 26.2997L11.9914 26.6039C11.9803 26.4349 11.9692 26.2547 11.9692 26.0857C11.9692 25.9167 11.9692 25.7365 11.9914 25.5675C11.2821 25.1395 10.6062 24.7115 10.0299 24.3623C7.32599 22.6839 9.52016 18.4372 9.52016 18.4372L17.0668 25.5112C15.8035 26.7278 16.3021 29.4763 18.5185 29.4763C21.6324 29.4763 21.4994 24.948 18.5628 24.948H18.5406C18.3633 24.948 18.186 24.9705 18.0198 25.0043L17.7649 24.2271L19.3385 23.3597L19.1612 22.8416C19.1612 22.8416 17.776 22.7402 16.956 23.6188L16.2911 20.2733L23.062 21.0505L22.1533 22.5825L23.5717 25.545L24.968 22.5712L24.0593 21.0393L30.4867 20.1494L30.1764 23.6076C29.5004 22.7402 27.9157 22.8303 27.9157 22.8303L27.7384 23.3485L29.4117 24.2496L29.1458 24.9931C28.9796 24.948 28.8023 24.9255 28.6249 24.9255C28.6249 24.9255 28.6028 24.9255 28.5917 24.9255C25.6661 24.9255 25.5221 29.4537 28.6471 29.4537C30.8856 29.4537 31.3732 26.6489 30.0656 25.4549L37.5679 18.4147C37.5679 18.4147 39.7288 22.6613 37.0249 24.3397L36.9916 24.351Z" fill="#1A1A18"/>
</g>
</g>
<defs>
<clipPath id="clip0_102_1844">
<rect width="46" height="60" fill="white" transform="translate(0.5)"/>
</clipPath>
<clipPath id="clip1_102_1844">
<rect width="46" height="58" fill="white" transform="translate(0.5 1)"/>
</clipPath>
</defs>
</svg>
