<svg width="301" height="240" viewBox="0 0 301 240" fill="none" xmlns="http://www.w3.org/2000/svg">
<path d="M265.02 199.49C257.138 199.325 228.527 212.075 220.572 226.112" stroke="#D6BD7F" stroke-width="4.34" stroke-linecap="round" stroke-linejoin="round"/>
<path d="M150.61 225.487C150.61 225.487 140.199 230.907 135.323 235.721" stroke="#D6BD7F" stroke-width="4.34" stroke-linecap="round" stroke-linejoin="round"/>
<path d="M254.077 191.884C240.936 191.259 224.329 193.593 211.004 196.587C195.113 200.17 180.816 205.663 166.318 213.031" stroke="#D6BD7F" stroke-width="4.34" stroke-linecap="round" stroke-linejoin="round"/>
<path d="M250.558 144.501C250.558 144.501 225.118 148.745 217.896 152.677" stroke="#D6BD7F" stroke-width="4.34" stroke-linecap="round" stroke-linejoin="round"/>
<path d="M173.045 173.842C173.045 173.842 125.701 197.488 119.065 205.755" stroke="#D6BD7F" stroke-width="4.34" stroke-linecap="round" stroke-linejoin="round"/>
<path d="M219.326 138.053C203.049 136.252 201.675 144.74 189.064 145.181C181.879 145.438 177.242 145.806 173.723 146.945C165.493 149.609 163.495 154.643 149.785 159.144" stroke="#D6BD7F" stroke-width="4.34" stroke-linecap="round" stroke-linejoin="round"/>
<path d="M123.501 178.876C123.501 178.876 90.857 193.886 88.5475 195.577C86.2198 197.267 63.1801 214.17 61.0723 214.592" stroke="#D6BD7F" stroke-width="4.34" stroke-linecap="round" stroke-linejoin="round"/>
<path d="M114.795 167.265C108.82 166.548 102.826 165.85 96.8508 165.133L93.3683 167.173L88.4928 170.039C85.3402 171.858 84.3504 173.089 84.5154 176.157L84.882 182.936" stroke="#D6BD7F" stroke-width="4.32" stroke-linecap="round" stroke-linejoin="round"/>
<path d="M127.222 154.827C124.418 146.32 122.273 142.793 114.722 138.181C110.158 135.389 106.675 131.512 112.944 126.478C114.887 124.916 117.05 123.005 118.589 121.462C121.027 119.019 120.66 117.677 118.168 117.126C115.308 116.502 110.323 115.105 106.547 109.998C104.971 107.867 105.392 108.124 103.431 110.751C99.6369 115.822 98.024 120.709 97.3091 126.368C96.1727 135.352 95.7145 138.953 92.2686 147.312C90.674 151.152 89.0061 155.488 89.391 157.05C90.0142 159.457 93.405 161.184 97.8224 165.262" stroke="#D6BD7F" stroke-width="4.32" stroke-linecap="round" stroke-linejoin="round"/>
<path d="M85.7983 171.49L79.4931 168.496L73.4445 170.664L67.5792 169.414L64.1334 166.291L66.6628 163.296L63.1069 159.695C63.1069 159.695 68.9539 155.047 73.9394 149.498C87.5396 134.415 74.2144 123.428 87.3013 104.614C90.9671 99.3415 96.1909 93.8665 103.394 95.667C103.101 86.1133 107.665 82.8246 115.84 77.6252C122.915 73.1055 124.821 69.3208 125.811 60.8327C126.251 56.9928 126.269 52.6386 126.269 48.2659C126.269 44.2607 126.067 41.762 126.324 38.161C126.782 31.5469 127.424 26.8252 132.134 23.1323" stroke="#D6BD7F" stroke-width="4.32" stroke-linecap="round" stroke-linejoin="round"/>
<path d="M139.521 21.7544C140.969 21.1114 142.417 20.4499 143.865 19.8069L143.737 12.8254C143.682 10.3451 141.812 9.16923 137.761 5.29264C131.749 2.83072 127.662 10.1062 127.515 14.9933C125.481 17.198 125.902 19.0904 128.285 21.6074C129.257 22.6363 130.576 22.0667 131.548 23.0956" stroke="#D6BD7F" stroke-width="4.32" stroke-linecap="round" stroke-linejoin="round"/>
<path d="M139.851 22.1955C139.851 22.1955 152.021 32.723 154.166 34.6888C153.671 26.1089 158.51 24.437 158.491 24.2349C158.308 20.8727 162.414 18.7782 165.108 18.2271" stroke="#D6BD7F" stroke-width="4.32" stroke-linecap="round" stroke-linejoin="round"/>
<path d="M159.738 21.1666C159.738 21.1666 159.738 14.4974 165.053 13.2297C170.369 11.9436 175.391 12.4396 176.381 11.2454C177.37 10.0512 179.185 4.0434 182.338 4.09852C184.354 4.06178 183.071 8.76514 184.189 11.0066C184.812 12.2559 188.404 11.6312 189.211 12.8989C195.186 22.4894 207.045 21.7912 207.063 21.8096C208.695 23.3345 209.721 25.9618 209.63 27.8909C209.263 34.946 197.991 36.6178 195.278 30.2793C193.445 31.9329 189.742 33.421 186.187 30.3896C186.26 31.9145 186.242 33.1087 186.297 34.2845C191.832 38.253 196.946 48.6886 196.506 54.8985C204.241 58.6097 203.214 65.7015 203.453 67.9062L217.236 67.796L219.527 70.2395L224.659 70.2028C224.659 70.2028 228.545 77.7171 240.056 81.8877" stroke="#D6BD7F" stroke-width="4.32" stroke-linecap="round" stroke-linejoin="round"/>
<path d="M241.504 82.8615L241.412 94.8587L238.571 98.3311C237.215 99.9846 234.52 100.205 233.732 97.5227C233.036 95.1343 232.376 91.6619 230.964 88.7407C229.516 85.7643 227.262 83.3575 225.539 82.3838" stroke="#D6BD7F" stroke-width="4.32" stroke-linecap="round" stroke-linejoin="round"/>
<path d="M231.642 92.2863C226.272 95.281 222.79 98.5513 220.92 101.252C219.472 100.444 215.879 98.7534 214.083 97.7981C219.417 87.5462 220.498 88.373 215.531 77.9741L201.711 83.5042C201.711 83.5042 200.813 90.1 194.544 90.1" stroke="#D6BD7F" stroke-width="4.32" stroke-linecap="round" stroke-linejoin="round"/>
<path d="M174.383 86.2788L165.86 74.7042C151.417 86.977 130.466 91.1476 120.954 73.2344" stroke="#D6BD7F" stroke-width="4.32" stroke-linecap="round" stroke-linejoin="round"/>
<path d="M156.2 44.5732C152.571 48.9459 145.001 53.5574 139.521 48.4315" stroke="#D6BD7F" stroke-width="4.32" stroke-linecap="round" stroke-linejoin="round"/>
<path d="M150.17 143.601C146.394 141.488 143.993 139.927 143.297 137.906C141.995 134.158 145.459 131.769 149.602 125.688C152.681 121.15 161.332 109.226 151.673 106.084C171.322 103.641 182.099 92.1581 182.869 91.0006C185.013 95.4651 187.653 101.308 192.034 104.431C192.968 103.365 196.781 100.554 200.043 102.061C203.196 103.531 210.473 97.6514 204.956 95.9428C202.426 95.1712 198.522 96.4389 198.064 96.2C197.624 95.9795 189.834 81.9797 183.309 71.7095C177.425 62.4681 176.161 60.9616 171.175 61.0534C168.921 61.0902 166.116 61.4944 160.966 61.6781C152.608 61.9904 153.671 57.5259 150.555 49.8462" stroke="#D6BD7F" stroke-width="4.32" stroke-linecap="round" stroke-linejoin="round"/>
<path d="M135.507 112.129C135.782 114.278 136.203 117.843 136.093 120.984C135.745 131.787 124.968 128.94 132.189 141.231C134.242 144.74 135.818 147.367 137.046 149.517" stroke="#D6BD7F" stroke-width="4.32" stroke-linecap="round" stroke-linejoin="round"/>
<path d="M3.97731 235.078C4.12395 232.009 16.6244 220.269 25.459 220.269C30.5178 220.269 53.4291 206.288 53.979 199.453C54.0707 198.296 67.176 191.425 80.5195 184.829C88.1994 181.044 119.817 170.278 120.422 158.207C132.702 150.344 184.152 128.903 184.152 128.903L240.459 127.764C244.07 127.69 247.314 128.168 249.624 130.263C253.033 133.349 251.236 152.218 249.404 155.598C225.539 157.766 236.94 181.283 248.084 187.75C273.488 202.485 278.767 213.343 297.004 236.125L3.95898 235.059L3.97731 235.078Z" stroke="#D6BD7F" stroke-width="4.34" stroke-linecap="round" stroke-linejoin="round"/>
</svg>
